<svg xmlns="http://www.w3.org/2000/svg" id="Layer_1" data-name="Layer 1" viewBox="0 0 2500 2500"><defs><style>      .cls-1 {        fill: #000;        stroke: #231f20;        stroke-miterlimit: 10;      }      .cls-2 {        fill: #bfc4e4;        stroke-width: 0px;      }    </style></defs><rect class="cls-1" x=".5" y=".5" width="2499" height="2499"></rect><g><path class="cls-2" d="M2137.13,363.88h-574.61v415.37h-886.12v-415.37h-311.53v726.9h366.91v1045.35h311.53v-664.3l103.84,69.23v595.07h886.12v-418.83h-366.91v-938.04h470.77l-138.46-207.68,138.46-207.68ZM939.46,1277.78v754.49h-103.84V986.93h-366.91V467.72h103.84v415.37h989.96v103.84h-415.37v304.51l207.68,138.46v287.39h-103.84v-231.82l-311.53-207.68ZM1929.43,2032.28h-678.44v-211.15h678.44v211.15ZM1458.68,1717.29v-342.96l-207.68-138.46v-145.09h311.53v626.51h-103.84ZM1943.1,675.41h-276.74v-207.68h276.74l-69.23,103.84,69.23,103.84Z"></path><path class="cls-2" d="M1199.07,571.56c0-114.52-93.17-207.68-207.68-207.68s-207.68,93.17-207.68,207.68,93.17,207.68,207.68,207.68,207.68-93.17,207.68-207.68ZM991.39,675.41c-57.26,0-103.84-46.58-103.84-103.84s46.58-103.84,103.84-103.84,103.84,46.58,103.84,103.84-46.58,103.84-103.84,103.84Z"></path></g></svg>