<svg xmlns="http://www.w3.org/2000/svg" id="a39a8a62-488c-4bd0-93dd-a8cf4aeacd8b" data-name="Layer 3" viewBox="0 0 85.16 294.98"><path d="M71.17,200.13c0,18.44-13,31-30.73,31s-30.73-12.52-30.73-31,13-31,30.73-31S71.17,181.69,71.17,200.13ZM40.44,183.55c-9.92,0-17.13,6.58-17.13,16.58s7.21,16.59,17.13,16.59,17.12-6.58,17.12-16.59S50.35,183.55,40.44,183.55Z"></path><path d="M70,161.46H10.88V117.8H24.44v29h9.67V123H45.86v23.77H56.44v-29H70Z"></path><path d="M70,95H24.44v16.09H10.88V64.17H24.44V80.35H70Z"></path><path d="M70,56.9H10.88V13.25H24.44v29h9.67V18.49H45.86V42.26H56.44v-29H70Z"></path><polygon points="70 228.39 36.29 249.06 10.87 229.07 10.87 246.42 34.86 264.6 10.87 264.6 10.87 279.23 10.87 282.46 16.23 279.23 64.64 279.23 70 282.46 70 279.23 70 264.6 54.71 264.6 48.03 259.24 70 245.97 70 228.39"></polygon></svg>