<svg xmlns="http://www.w3.org/2000/svg" id="Layer_1" data-name="Layer 1" viewBox="0 0 2500 2500"><defs><style>      .cls-1 {        fill: #000;        stroke: #231f20;        stroke-miterlimit: 10;      }      .cls-2 {        fill: #bfc4e4;        stroke-width: 0px;      }    </style></defs><rect class="cls-1" x=".5" y=".5" width="2499" height="2499"></rect><path class="cls-2" d="M1857.86,1347.04c58.18-44.89,95.76-115.23,95.76-194.23,0-135.23-110.02-245.25-245.25-245.25-74.25,0-140.84,33.21-185.85,85.5-29.34-123.21-140.33-215.13-272.39-215.13s-243.05,91.91-272.39,215.13c-45.01-52.29-111.6-85.5-185.85-85.5-135.24,0-245.26,110.02-245.26,245.25,0,79,37.58,149.34,95.76,194.23-123.67,56.83-209.76,181.86-209.76,326.64v47.9h1635v-47.9c0-144.78-86.09-269.81-209.76-326.64ZM1708.37,1003.36c82.41,0,149.45,67.04,149.45,149.45s-67.04,149.45-149.45,149.45-149.45-67.04-149.45-149.45,67.04-149.45,149.45-149.45ZM1474.17,1225.67c15.18,48.71,45.21,90.89,84.71,121.36-11.51,5.29-22.68,11.17-33.5,17.6-34.92-31.14-75.12-56.45-119.09-74.42,26.07-17.58,49.03-39.43,67.88-64.54ZM1250.12,873.73c101.57,0,184.2,82.63,184.2,184.19s-82.63,184.19-184.2,184.19-184.19-82.63-184.19-184.19,82.63-184.19,184.19-184.19ZM1026.08,1225.67c18.85,25.11,41.81,46.96,67.88,64.54-43.97,17.97-84.17,43.29-119.09,74.42-10.82-6.43-21.99-12.31-33.5-17.6,39.5-30.47,69.53-72.66,84.71-121.36ZM791.88,1003.36c82.41,0,149.45,67.04,149.45,149.45s-67.04,149.45-149.45,149.45-149.46-67.04-149.46-149.45c0-82.41,67.04-149.45,149.46-149.45ZM838.85,1625.77h-306.06c22.58-122.48,130.17-215.55,259.09-215.55,42.36,0,82.39,10.1,117.89,27.94-37.83,54.51-62.92,118.49-70.91,187.61ZM935.46,1625.77c23.17-152.84,155.46-270.36,314.66-270.36s291.49,117.52,314.66,270.36h-629.33ZM1661.4,1625.77c-8-69.12-33.08-133.1-70.91-187.61,35.5-17.84,75.52-27.94,117.89-27.94,128.92,0,236.5,93.07,259.09,215.55h-306.06Z"></path></svg>