<svg xmlns="http://www.w3.org/2000/svg" id="Layer_1" data-name="Layer 1" viewBox="0 0 2500 2500"><defs><style>      .cls-1 {        fill: #000;        stroke: #231f20;        stroke-miterlimit: 10;      }      .cls-2 {        fill: #c9c9c9;        stroke-width: 0px;      }    </style></defs><rect class="cls-1" x=".5" y=".5" width="2499" height="2499"></rect><path class="cls-2" d="M1280.61,1419.49c-75.81,263.01-151.63,526.02-229.09,794.76-23.52-64.21-45.1-123.09-68.11-185.91-59.66,34.54-117.44,67.99-180.79,104.67,79.85-257.32,157.82-508.56,235.78-759.79-2.05-1.2-4.1-2.4-6.15-3.6-5.76,4.26-11.52,8.53-17.29,12.78-25.49,18.79-50.63,38.11-76.76,55.96-5.68,3.88-17.25,5.85-21.91,2.63-4.88-3.37-7.47-14.54-6.26-21.46,5.8-33.16,13.45-65.99,19.85-99.06,1.03-5.31.99-13.85-2.1-16.14-3.41-2.54-11.39-.88-16.51,1.15-30.66,12.17-60.83,25.6-91.73,37.08-7.2,2.68-19.86,2.5-24.07-1.97-4.07-4.31-2.96-16.95.18-24.02,13.09-29.53,28.09-58.2,41.66-87.53,2.53-5.46,1.73-12.45,2.47-18.74-5.73-.65-11.59-2.42-17.16-1.76-33.43,3.99-66.74,9.02-100.22,12.47-6.41.66-17.74-2.69-19.09-6.76-2.12-6.37.04-16.71,4.37-22.26,19.48-24.95,40.56-48.64,60.6-73.16,4.42-5.41,6.96-12.36,10.37-18.6-6.46-2.69-12.72-6.88-19.43-7.82-31.33-4.41-62.89-7.27-94.11-12.24-7.52-1.2-18.67-7.37-19.86-13-1.29-6.1,5.45-16.4,11.58-21.13,23.94-18.52,49.21-35.3,73.56-53.32,6.11-4.52,10.61-11.22,15.85-16.92-6.26-4.52-11.94-10.47-18.89-13.31-27.99-11.43-56.69-21.19-84.42-33.19-7.68-3.32-12.93-12.27-19.29-18.64,6.1-5.88,11.2-14.11,18.48-17.22,28.42-12.14,57.67-22.34,86.29-34.05,6.28-2.57,11.23-8.36,16.79-12.67-4.42-5.43-7.96-12.06-13.43-16.08-23.83-17.55-48.75-33.66-72.09-51.82-7.13-5.55-10.47-15.98-15.55-24.18,8.46-4.64,16.48-12.01,25.45-13.43,28.49-4.52,57.38-6.38,85.98-10.3,7.17-.98,16.04-4.26,19.79-9.56,2.07-2.93-3.66-13.2-7.93-18.49-19.47-24.1-40.27-47.14-59.16-71.66-4.57-5.93-6.8-17.26-4.25-23.83,1.68-4.32,14.13-6.98,21.3-6.2,31.41,3.43,62.61,8.74,94,12.45,5.86.69,14.74-1.02,17.63-4.97,2.77-3.79,1.16-12.68-1.3-18.07-12.85-28.15-27.28-55.59-39.53-83.98-3.26-7.56-3.64-19.29.21-25.86,2.22-3.79,16.43-3.52,23.7-.87,28.4,10.36,56.06,22.72,84.3,33.55,6.21,2.38,17.45,4.52,19.68,1.62,4.06-5.28,5.12-14.77,3.87-21.87-5.26-29.76-12.42-59.18-17.54-88.95-1.23-7.14.53-19.57,4.84-21.73,6.22-3.13,17.83-1.78,24.01,2.35,25.17,16.81,48.9,35.75,73.73,53.09,5.95,4.15,14.1,5.14,21.24,7.58,2.48-7.24,6.53-14.34,7.15-21.73,2.47-29.48,3.16-59.13,6.14-88.54.77-7.61,6.2-19.06,11.82-20.68,5.99-1.74,16.83,4.25,21.93,10.05,19.99,22.73,38.23,47,57.89,70.04,4.22,4.95,12.37,10.62,17.45,9.62,5.06-1,10.28-9.38,12.41-15.57,10.08-29.22,18.54-59.02,29-88.1,2.35-6.52,10.09-14.88,15.88-15.32,5.66-.43,14.51,6.92,17.61,13.06,13.93,27.61,25.94,56.19,39.55,83.97,2.86,5.84,9.26,13.29,14.5,13.69,5.14.39,12.55-6.19,16.08-11.6,15.8-24.2,29.88-49.53,46.12-73.42,5.15-7.58,15.06-11.94,22.79-17.77,5.23,8.02,13.16,15.41,15.2,24.18,6.67,28.76,10.78,58.1,16.9,87.01,1.32,6.23,5.75,14.07,10.92,16.45,3.77,1.74,12.26-3.02,16.66-7.06,22.84-20.93,44.56-43.11,67.82-63.55,5.68-4.99,16.64-8.25,23.37-6.24,4.6,1.37,8.78,13.36,8.48,20.4-1.24,29.53-4.78,58.95-6.22,88.48-.39,7.96,1.63,17.92,6.52,23.44,2.36,2.66,14.67-1.45,21.22-4.89,26.8-14.06,52.83-29.6,79.82-43.27,6.34-3.21,17.94-4.4,22.32-.75,4.44,3.69,5.58,15.33,3.56,22.1-9.04,30.27-20.13,59.92-29.51,90.1-1.91,6.15-1.87,15.13,1.45,19.9,2.28,3.27,12.21,3.17,17.99,1.71,28.64-7.22,56.85-16.24,85.63-22.74,9-2.03,19.33,1.81,29.05,2.96-1.63,9.43-.82,20.28-5.34,28.01-14.57,24.93-31.48,48.49-46.63,73.1-3.81,6.19-4.42,14.34-6.51,21.59,6.76,1.88,13.49,5.29,20.27,5.38,31,.43,62.03-.64,93,.22,7.1.2,18.67,4.67,19.93,9.39,1.76,6.57-2.08,17.41-7.31,22.61-22.45,22.32-46.56,42.95-69.38,64.91-4.72,4.54-8.9,12.2-8.68,18.25.12,3.22,9.87,7.29,15.84,8.89,30.53,8.18,61.44,15.01,91.75,23.89,7.27,2.13,16.08,9.37,17.93,16,1.26,4.5-7.12,14.24-13.37,17.86-26.77,15.5-54.55,29.26-81.51,44.45-6.46,3.64-11.19,10.34-16.72,15.63,5.75,5.11,10.82,11.42,17.37,15.11,26.97,15.19,54.69,29.06,81.41,44.66,6.12,3.57,13.42,12.65,12.72,18.27-.72,5.79-9.77,13.21-16.53,15.11-30.4,8.54-61.38,14.97-91.9,23.09-7.19,1.91-13.4,7.47-20.06,11.35,4.02,5.81,7.19,12.51,12.21,17.27,22.98,21.8,46.9,42.62,69.44,64.85,4.94,4.87,8.58,14.74,7.2,21.09-.97,4.47-11.38,9.64-17.67,9.76-32.28.63-64.6-.68-96.9-.35-7.32.07-14.61,3.94-21.91,6.06,2.5,6.67,3.97,13.97,7.67,19.89,17.15,27.42,35.37,54.18,52.1,81.86,3.28,5.43,4.74,16.73,1.53,20.15-4.41,4.69-14.75,7.36-21.38,5.83-31.44-7.26-62.42-16.48-93.72-24.41-6.77-1.72-14.16-.99-21.26-1.39.58,7.61-.24,15.67,2,22.76,9.53,30.13,20.56,59.8,29.63,90.06,2.03,6.79,1,18.3-3.41,22.14-4.28,3.73-16.01,2.92-22.22-.27-28.12-14.46-55.44-30.48-83.06-45.93-6.18-3.46-12.4-6.84-18.6-10.26-1.9,1.29-3.8,2.59-5.7,3.88,80.75,261.52,161.51,523.05,244.18,790.79-62.28-36.12-119.94-69.56-180.66-104.78-22.56,61.42-44.17,120.27-65.79,179.12-1.47.05-2.94.1-4.4.15-75.75-262.76-151.51-525.51-227.26-788.27-3.1.09-6.21.18-9.31.27ZM1252.99,1317.18c224.67.03,406.65-181.53,406.71-405.75.06-224.34-181.52-405.47-406.46-405.45-225.19.02-406.88,180.94-406.95,405.22-.07,223.86,182.35,405.96,406.71,405.98Z"></path></svg>